# xmcd
#
# Track frame offsets:
#	150
#	13842
#	32836
#	45248
#	62444
#	84254
#	101234
#	113729
#	125827
#	143495
#	158290
#	175035
#	184489
#	202400
#	217442
#	243151
#	263189
#	275381
#	287555
#	302240
#
# Disc length: 4265 seconds
#
# Revision: 1
# Processed by: cddbd v1.4PL0 Copyright (c) Steve Scherf et al.
# Submitted via: EasyCDDAExtractor 5.0.6
#
DISCID=2210a714
DTITLE=Totta's Bluesband - Sittin' on top of the world
DYEAR=2003
DGENRE=Blues
TTITLE0=Going back to the country
TTITLE1=We'll play the blues for you
TTITLE2=I'm a lover not a fighter
TTITLE3=Bottom of the sea
TTITLE4=No expectations
TTITLE5=Stop using me
TTITLE6=Ain't your business
TTITLE7=Combination boogie
TTITLE8=Bad bad whiskey
TTITLE9=The world's in a tangle
TTITLE10=I better keep what I've got
TTITLE11=Saturday night's boogie woogie man
TTITLE12=Just a feeling
TTITLE13=It ain't right
TTITLE14=Sittin' on top of the world
TTITLE15=Bring it on home
TTITLE16=That's the truth
TTITLE17=Too late
TTITLE18=My love for you will never die
TTITLE19=Going back to Memphis
EXTD=
EXTT0=
EXTT1=
EXTT2=
EXTT3=
EXTT4=
EXTT5=
EXTT6=
EXTT7=
EXTT8=
EXTT9=
EXTT10=
EXTT11=
EXTT12=
EXTT13=
EXTT14=
EXTT15=
EXTT16=
EXTT17=
EXTT18=
EXTT19=
PLAYORDER=
